# xmcd
#
# Track frame offsets:
#	150
#	17307
#	31922
#	46010
#	58145
#	70915
#	81727
#	93542
#	109825
#	122617
#	139002
#	156310
#	169200
#
# Disc length: 2446 seconds
#
# Revision: 0
# Processed by: cddbd v1.5.2PL0 Copyright (c) Steve Scherf et al.
# Submitted via: EasyCDDAExtractor 16.0.6.1
#
DISCID=ac098c0d
DTITLE=Νταλάρας Γιώργος - Τα τραγούδια μας-2011, Γ. Νταλάρας
DYEAR=1976
DGENRE=Λαϊκή
TTITLE0=Νταλάρας Γιώργος - Λιώνουν τα νιάτα μας [Μ. Λοΐζος-Φ. Λάδης]
TTITLE1=Νταλάρας Γιώργος - Πάγωσε η τσιμινιέρα [Μ. Λοΐζος-Φ. Λάδης]
TTITLE2=Νταλάρας Γιώργος - Στη δουλειά και στον αγώνα [Μ. Λοΐζος-Φ. Λάδης]
TTITLE3=Νταλάρας Γιώργος - Ο Στράτος [Μ. Λοΐζος-Φ. Λάδης]
TTITLE4=Νταλάρας Γιώργος - Ρημάξαν τα χωριά μας [Μ. Λοΐζος-Φ. Λάδης]
TTITLE5=Νταλάρας Γιώργος - Το δέντρο [Μ. Λοΐζος-Φ. Λάδης]
TTITLE6=Νταλάρας Γιώργος - Αχ. πατρίδα μου καϋμένη [Μ. Λοΐζος-Φ. Λάδης]
TTITLE7=Νταλάρας Γιώργος - Άλλο τίποτα δε μένει [Μ. Λοΐζος-Φ. Λάδης]
TTITLE8=Νταλάρας Γιώργος - Μέγαρα [Μ. Λοΐζος-Φ. Λάδης]
TTITLE9=Νταλάρας Γιώργος - Μετανάστες [Μ. Λοΐζος-Φ. Λάδης]
TTITLE10=Νταλάρας Γιώργος - Απ' τη συνοικία [Μ. Λοΐζος-Φ. Λάδης]
TTITLE11=Νταλάρας Γιώργος - Άνεργος [Μ. Λοΐζος-Φ. Λάδης]
TTITLE12=Χορωδία - Πάγωσε η τσιμινιέρα [Μ. Λοΐζος-Φ. Λάδης]
EXTD=
EXTT0=
EXTT1=
EXTT2=
EXTT3=
EXTT4=
EXTT5=
EXTT6=
EXTT7=
EXTT8=
EXTT9=
EXTT10=
EXTT11=
EXTT12=
PLAYORDER=
